<svg version="1.2" xmlns="http://www.w3.org/2000/svg" viewBox="0 0 1024 1024" width="256" height="256"><style>.a{fill:#22ffc2;stroke:#22ffc2}.b{fill:#eee}.c{fill:none;stroke:#22ffc2}</style><path fill-rule="evenodd" class="a" d="m980.3 659.4c-0.2 0.5-0.3 1.1-0.5 1.6l-67.9-21.2c0.2-0.5 0.3-1 0.5-1.5 11-36.3-18.5-78.8-88.6-127.4-69.5-47.9-160.8-89-273.9-123.4-76.9-23.4-150-38.7-219.2-46-65.2-6.9-118-4.7-158.3 6.5-33.4 8.7-54 22.7-61.8 42.1l-67.9-21.2c9.9-25.5 36.8-43.6 80.6-54.5 50.1-12.6 117.6-13.5 202.6-2.8 71.3 8.9 148.4 26 231.5 51.3 138.5 42.1 248 92.3 328.7 150.4q113.9 81.7 94.2 146.1z"/><path fill-rule="evenodd" class="b" d="m508.1 179.6c59.7 0 114.9 13.8 165.4 41.5 54.9 29.9 97.3 73.4 127.2 130.4 25 47.9 37.5 101.1 37.5 159.8 0 97.8-33.2 178.5-99.5 242.1-61.9 59.7-139.1 89.6-231.4 89.6-100 0-181.8-34.8-245.4-104.3-56.5-61.9-84.8-138.8-84.8-230.7 0-56.5 12.5-108.6 37.5-156.5 29.9-56.5 72.6-99.9 128-130.4 49.5-27.7 104.6-41.5 165.5-41.5zm0 48.1c-78.8 0-145.1 27.4-198.9 82.3-52.7 54.3-79.1 122.5-79.1 204.6 0 52.1 13.6 101.3 40.8 147.5q39.2 66 106.8 101.1c40.7 21.2 84.2 31.8 130.4 31.8 78.2 0 144.2-27.5 198-82.4 52.7-54.3 79.1-121.4 79.1-201.3 0-54.3-13.6-104.6-40.8-150.8-25.5-43.5-61.4-77.2-107.5-101.1-39.7-21.1-82.6-31.7-128.8-31.7z"/><path fill-rule="evenodd" class="a" d="m979.8 661c-15 45.3-75.6 67.8-181.8 67.4-95.7-0.4-208.5-20.4-338.6-59.9-80-24.3-152.1-52.6-216.2-84.8-75.8-38.2-131.3-76.7-166.6-115.6-32.3-34.9-44.1-66.4-35.5-94.7 0.5-1.5 1-3 1.6-4.5l67.9 21.2c-0.5 1.3-1 2.6-1.4 4q-16.6 54.9 88.5 127.8 104.3 71.8 278.4 124.8c73.9 22.5 145.4 37.3 214.7 44.6 66 6.8 118.7 4.8 158.1-6.1 34.9-9.6 55.9-24.7 63-45.4z"/><path class="c" d=""/><path class="c" d=""/><path class="c" d=""/></svg>